<svg version="1.1" id="Layer_1" xmlns="http://www.w3.org/2000/svg" xmlns:xlink="http://www.w3.org/1999/xlink" x="0px" y="0px"
	 width="100%" viewBox="0 0 496 496" enable-background="new 0 0 496 496" xml:space="preserve">
<path fill="#000000" opacity="1.000000" stroke="none" 
	d="
M243.210312,270.141113 
	C243.919937,267.764130 244.484787,265.734467 245.302277,262.797028 
	C247.944458,268.977051 248.854294,274.554016 249.856659,280.024597 
	C251.093826,286.776794 258.223572,287.058014 261.953583,291.635498 
	C259.840424,292.351440 258.157867,292.921509 256.167542,293.595825 
	C257.243530,295.719666 259.362610,296.054138 260.933868,297.024780 
	C266.466003,300.442200 266.550842,302.276337 261.179657,305.391083 
	C268.671448,310.891663 268.671448,310.891663 264.420197,315.772766 
	C269.219055,315.936157 269.331573,320.868195 272.461517,322.631683 
	C272.197632,323.193115 272.136505,323.640167 271.918579,323.738037 
	C269.619263,324.770447 265.957184,324.160461 265.563782,327.553009 
	C265.142456,331.186768 268.930817,331.565399 271.169556,333.044281 
	C272.485199,333.913300 274.237183,334.172363 275.321167,335.960388 
	C274.532043,336.362610 274.006775,336.774414 273.419159,336.904236 
	C271.185547,337.397888 268.538422,337.229584 267.787506,340.142426 
	C267.209076,342.386200 268.935303,343.518341 270.469208,344.450073 
	C272.850861,345.896759 275.740570,346.600769 278.041473,344.992950 
	C281.183807,342.797241 283.660522,339.776398 284.937805,335.983185 
	C285.503204,334.304077 283.225555,334.029297 283.382874,332.183411 
	C288.637695,330.784485 289.106567,326.386871 289.225128,321.752716 
	C289.239899,321.174652 289.593567,320.375305 290.050842,320.073944 
	C294.726624,316.992371 296.585663,312.327362 297.624207,306.773010 
	C301.452271,314.358093 299.732086,324.884369 311.100342,327.926361 
	C309.188843,329.321503 308.297699,329.971924 307.152039,330.808105 
	C308.108643,331.497864 308.875610,332.099243 309.689514,332.628479 
	C311.963745,334.107422 314.551453,335.386322 312.399323,338.841980 
	C311.672424,340.009094 312.742279,340.558319 313.502838,341.209686 
	C314.112671,341.731964 315.155457,342.728180 315.014099,343.002106 
	C312.683563,347.517609 317.630768,349.458069 318.483490,352.772125 
	C313.034271,356.235229 313.034271,356.235229 321.060211,362.671539 
	C320.299408,364.270630 318.437256,363.939606 317.281006,364.825195 
	C316.392029,365.506104 316.096405,366.438171 316.522919,367.480377 
	C316.925568,368.464294 317.665710,369.176819 318.792053,369.116455 
	C319.803253,369.062225 321.259918,368.637604 320.932770,367.573273 
	C319.806824,363.910248 323.336243,364.238861 324.782257,362.700043 
	C325.990082,361.110779 323.487854,360.673492 323.676392,359.065277 
	C324.533844,358.628693 326.493500,357.814819 326.436523,357.633148 
	C324.940765,352.862000 333.771667,350.618378 330.061798,346.449097 
	C334.261292,338.594635 338.132751,331.353668 342.649078,322.906586 
	C343.368622,326.004669 343.955414,328.097351 344.327911,330.227570 
	C345.041321,334.307220 346.479980,337.605438 350.425812,339.908569 
	C353.568115,341.742676 354.041534,346.157776 354.906219,349.161530 
	C355.641632,351.716248 356.760773,353.656464 357.993988,355.841614 
	C359.989563,355.157318 361.715820,354.267334 362.943756,352.777740 
	C363.305695,351.032471 361.345276,350.617462 361.238922,349.407593 
	C362.072998,345.201385 370.405029,346.369995 368.049835,339.356110 
	C369.050171,337.732605 371.671967,337.493835 373.457367,335.948334 
	C373.897247,333.766724 370.884430,334.067627 370.777893,332.293823 
	C371.495270,330.730927 373.363464,330.923828 374.432098,329.916138 
	C374.838776,328.304138 372.618195,328.650787 372.488800,326.742249 
	C378.051849,326.630188 376.576416,319.964386 380.721893,317.902618 
	C380.429840,315.996613 378.304901,315.861267 377.121399,314.411316 
	C378.977417,311.937988 382.402069,312.437775 384.641235,310.102386 
	C380.935272,307.288269 387.688171,304.240631 383.767944,300.948303 
	C390.403931,297.832275 392.552887,292.103210 394.010254,284.992188 
	C395.572235,287.487000 396.761963,288.997925 399.050079,288.674286 
	C403.240814,288.081482 404.048492,290.495270 404.038971,294.060455 
	C403.962067,322.886993 403.905182,351.714081 404.044922,380.540039 
	C404.064606,384.593994 402.108307,386.418427 398.937866,388.145142 
	C366.028198,406.068604 333.173218,424.092377 300.295288,442.074188 
	C285.390564,450.225983 270.430054,458.276978 255.584366,466.534607 
	C252.322083,468.349213 249.678207,468.426971 246.321915,466.581360 
	C198.300766,440.174347 150.220078,413.875397 102.103645,387.642273 
	C99.233833,386.077637 98.026176,384.147644 98.031113,380.944061 
	C98.075729,351.950775 98.065582,322.957336 97.988251,293.964111 
	C97.978584,290.339813 98.945045,288.090240 103.069504,288.618530 
	C104.634056,288.818909 105.432175,287.647644 106.435905,286.699799 
	C107.940331,287.859375 109.131302,289.223022 109.150948,291.167542 
	C109.235580,299.542419 111.284325,306.735840 120.189682,309.394287 
	C120.185883,312.145264 117.308846,311.461273 116.975792,313.208313 
	C117.741371,315.056183 119.753288,314.950378 121.005737,315.961090 
	C122.826645,317.430511 125.077972,318.726166 123.133881,321.595001 
	C122.296089,322.831299 122.644737,323.861542 123.749893,324.592438 
	C126.807175,326.614258 126.565613,328.781494 123.547493,331.326050 
	C127.056351,332.591156 127.898407,335.796204 130.255112,337.806732 
	C128.939819,340.471130 122.614311,338.903381 125.030014,343.937927 
	C126.334244,346.656097 130.197433,346.704254 132.137802,348.982727 
	C131.852982,349.465363 131.754379,349.888580 131.532990,349.967499 
	C129.559525,350.671143 127.012505,350.620544 126.513153,353.343781 
	C126.195404,355.076569 127.406357,356.143280 128.851639,356.785004 
	C131.198242,357.826904 133.512390,358.347107 135.888016,356.605774 
	C139.509003,353.951569 141.872787,350.899109 139.995361,345.934296 
	C142.865570,345.026337 144.475327,343.246002 144.642090,339.992340 
	C144.952713,333.932281 152.005341,331.241852 152.341766,324.820099 
	C155.660706,330.992310 154.333588,339.627075 162.524826,341.802765 
	C163.257019,343.865204 161.078125,343.974579 161.295273,345.291016 
	C163.511780,348.189056 166.092743,347.450500 169.313202,346.102814 
	C167.976334,345.563660 167.138275,345.225647 165.529144,344.576691 
	C168.994568,342.046906 172.450714,339.872345 172.480331,335.272888 
	C172.712189,334.136627 170.553146,334.058685 170.811081,332.088348 
	C176.227112,330.966675 176.588699,326.512177 176.740875,322.060120 
	C176.773132,321.116425 176.874161,320.386993 177.608734,319.966827 
	C182.565247,317.132080 183.782990,312.043304 185.898209,307.050995 
	C186.974564,311.121185 188.504532,315.135468 189.014740,319.275421 
	C189.682861,324.696686 195.272858,324.838745 198.249878,329.070160 
	C197.217239,329.647461 196.097916,330.273193 194.721970,331.042389 
	C197.950775,333.475739 202.137009,334.596069 200.116531,339.715179 
	C199.776840,340.575836 202.438583,342.621155 203.725204,344.132812 
	C206.452271,343.763550 208.484116,342.550751 210.109528,340.985748 
	C209.825699,338.811127 207.771011,338.616028 207.159180,336.762482 
	C209.612473,333.181549 214.448441,332.299286 217.364853,329.327301 
	C216.548233,326.650787 214.122757,328.872253 212.951828,327.297577 
	C215.105087,323.871460 219.694550,323.969025 222.153305,321.253418 
	C221.779099,318.879181 219.155182,319.607483 218.381577,317.770172 
	C218.657028,315.678497 221.138077,315.940460 222.256516,314.625275 
	C222.074615,313.391693 220.168686,313.545776 220.220886,311.904236 
	C221.284393,309.359406 224.632172,309.341187 226.442627,306.822449 
	C222.261093,302.748840 228.429718,302.868225 229.190735,300.725647 
	C229.238342,298.143158 226.208282,298.657654 225.511520,296.401459 
	C228.177795,295.155029 230.926682,293.869965 233.339447,292.742004 
	C234.605484,290.712738 232.488235,290.156799 232.338211,288.314270 
	C232.831299,286.542145 239.267670,285.365448 232.825180,281.921967 
	C237.998672,278.958374 241.341339,275.386108 243.210312,270.141113 
M270.813232,398.328064 
	C270.897980,398.469360 270.957733,398.638153 271.074524,398.744110 
	C271.190369,398.849304 271.394897,398.984528 271.507141,398.946991 
	C273.614990,398.241821 271.444855,395.199707 273.855927,394.636139 
	C275.041931,394.674530 275.421173,395.710938 276.056152,396.427948 
	C276.703705,397.159119 277.341431,397.899017 278.412170,399.126587 
	C278.085693,396.706635 276.776520,395.481659 277.310577,393.603546 
	C279.207367,386.932648 277.814819,385.564789 270.793579,387.078430 
	C270.054199,390.613434 270.377716,394.205566 270.813232,398.328064 
M251.541245,397.929901 
	C254.228546,399.837433 257.038635,400.489624 259.634949,397.989563 
	C261.705444,395.995911 263.330658,393.644989 261.842224,390.500305 
	C260.507843,387.681091 258.305603,386.181519 255.156952,386.322876 
	C249.725128,386.566711 247.765991,391.839508 251.541245,397.929901 
M208.127914,350.327576 
	C211.954117,347.515106 217.113815,349.844177 221.578232,347.441803 
	C217.595688,344.752167 208.604187,344.965820 205.540497,347.308044 
	C204.799973,347.874207 204.326370,348.499969 204.569580,349.377625 
	C204.988831,350.890472 206.207504,350.758057 208.127914,350.327576 
M324.161377,394.997803 
	C323.006927,392.746216 322.819702,389.979645 320.405090,387.561798 
	C318.903229,391.550293 316.804749,394.652771 316.436707,399.072815 
	C319.605591,397.363800 322.389435,397.528900 325.616425,399.204865 
	C325.063477,397.468597 324.766022,396.534698 324.161377,394.997803 
M293.563263,395.667908 
	C294.446716,396.293335 294.822815,397.706543 296.514069,397.414825 
	C296.514069,394.074646 296.514069,390.730469 296.514069,386.057922 
	C295.332428,389.316559 296.935272,392.023773 294.369080,393.390778 
	C291.383911,392.532684 291.128906,388.705536 287.756775,387.852905 
	C287.101288,391.389435 287.074677,394.695404 288.071960,398.344360 
	C289.398102,396.641113 288.260071,394.302856 290.557434,393.220764 
	C291.329529,393.809143 292.220337,394.487946 293.563263,395.667908 
M198.181091,388.390076 
	C194.804398,390.875488 194.770584,394.903839 193.376892,398.628021 
	C196.435852,397.080414 199.298859,397.615662 202.654358,399.154694 
	C201.096756,395.174408 199.849304,391.986694 198.181091,388.390076 
M371.413605,356.618805 
	C367.544189,355.931702 363.937683,357.271179 360.270233,358.095337 
	C359.234467,358.328125 358.400757,359.015259 358.608429,360.171326 
	C358.696198,360.659882 359.647247,361.483368 359.834900,361.392090 
	C364.198608,359.268982 369.370148,360.354614 374.546295,358.162231 
	C373.151459,357.443237 372.594086,357.155945 371.413605,356.618805 
M235.735245,398.140625 
	C237.893661,396.976288 236.662613,393.399689 240.370667,393.130737 
	C235.440689,390.124695 237.394196,388.340759 241.225464,386.882751 
	C236.882706,385.659088 234.976501,386.630951 235.291519,390.658844 
	C235.472198,392.969147 235.429840,395.296875 235.735245,398.140625 
M212.611435,395.649323 
	C211.967285,392.950592 213.543518,389.931732 211.664383,386.902679 
	C209.545746,389.827057 210.770920,392.522247 210.705841,395.072205 
	C210.582062,399.923218 210.646072,399.926758 215.671478,398.800415 
	C214.912643,397.692474 213.094849,397.852203 212.611435,395.649323 
M232.503540,419.560089 
	C231.706253,416.900482 230.162888,415.489410 227.522522,417.279114 
	C226.015518,418.300537 225.672211,420.304626 226.993835,421.566284 
	C229.184219,423.657288 231.103485,422.717896 232.503540,419.560089 
M253.123459,421.865204 
	C254.849594,420.282074 254.629272,418.700562 253.021652,417.230713 
	C252.080399,416.370117 250.944626,416.247986 249.842941,416.974976 
	C248.440125,417.900604 247.872421,419.252319 248.474136,420.818115 
	C249.230270,422.785706 250.811264,422.870361 253.123459,421.865204 
M275.567932,419.433289 
	C275.385345,417.131500 274.035156,416.184814 271.895050,416.640106 
	C270.546387,416.927002 269.602234,417.953705 269.497528,419.443390 
	C269.405579,420.751648 270.151703,421.676819 271.274780,422.142426 
	C273.362640,423.008087 274.752258,422.168884 275.567932,419.433289 
M178.388245,391.304932 
	C179.047699,390.073883 179.707169,388.842804 180.876984,386.659058 
	C177.422775,388.806885 175.775314,391.031677 176.650055,394.014343 
	C177.493774,396.891174 179.610504,398.855957 184.378891,398.925629 
	C180.230392,397.206451 177.644608,395.773590 178.388245,391.304932 
M226.265472,398.307007 
	C227.038757,394.699402 227.150375,391.119232 225.922318,387.587097 
	C225.163742,391.141113 224.947205,394.688080 226.265472,398.307007 
M306.272583,389.898529 
	C306.272583,392.682343 306.272583,395.466187 306.272583,398.250000 
	C306.707336,398.224731 307.142090,398.199463 307.576843,398.174194 
	C307.458893,394.929840 308.180939,391.683624 307.155518,388.441315 
	C306.915466,388.566559 306.648499,388.659973 306.446869,388.830597 
	C306.347565,388.914734 306.369019,389.141541 306.272583,389.898529 
z"/>
<path fill="#000000" opacity="1.000000" stroke="none" 
	d="
M319.113342,82.943192 
	C298.210938,71.458771 277.565826,60.266289 257.089386,48.773296 
	C252.839828,46.388096 249.517685,46.214336 245.148804,48.628437 
	C201.276169,72.871033 157.301971,96.930222 113.292816,120.924492 
	C110.199249,122.611122 109.122208,124.650116 109.180138,128.045044 
	C109.344971,137.704346 109.113716,147.370575 109.289085,157.029510 
	C109.360558,160.966476 107.816788,162.318802 103.980492,162.275818 
	C100.296295,162.234528 97.897293,161.625229 97.955566,157.141998 
	C98.113609,144.983047 98.061005,132.820770 98.013084,120.660126 
	C98.001190,117.643311 99.285789,115.820343 101.944412,114.368568 
	C150.178589,88.029587 198.381363,61.632988 246.552887,35.179607 
	C249.666519,33.469761 252.332291,33.474911 255.441849,35.181923 
	C303.618439,61.628731 351.822998,88.024673 400.068237,114.345924 
	C402.948578,115.917366 404.097656,117.910294 404.073608,121.093452 
	C403.984406,132.920547 403.936737,144.750000 404.088715,156.575790 
	C404.145172,160.970566 402.273621,162.291656 398.065491,162.305008 
	C393.743134,162.318710 392.675507,160.453445 392.746094,156.538010 
	C392.914215,147.212280 392.611420,137.876938 392.844330,128.554108 
	C392.939728,124.736031 391.728912,122.552467 388.285675,120.697975 
	C365.266479,108.300125 342.368103,95.677887 319.113342,82.943192 
z"/>
<path fill="#000000" opacity="1.000000" stroke="none" 
	d="
M325.601868,441.671173 
	C303.511444,453.770233 281.643463,465.512329 260.016541,477.682709 
	C253.609085,481.288483 248.207169,481.115692 241.839233,477.604034 
	C192.827087,450.575897 143.707825,423.741516 94.552010,396.975159 
	C88.924095,393.910645 86.525421,389.827087 86.572845,383.355499 
	C86.787750,354.029968 86.663170,324.701996 86.661125,295.374878 
	C86.661079,294.708374 86.590385,294.031494 86.681213,293.377319 
	C86.930428,291.582489 85.934647,288.862427 89.169029,288.985016 
	C91.974396,289.091339 91.276802,291.560181 91.287964,293.212463 
	C91.364464,304.542908 91.342453,315.874023 91.343246,327.204926 
	C91.344513,345.201111 91.578667,363.202301 91.201599,381.190643 
	C91.075302,387.215973 93.217720,390.629089 98.397713,393.431732 
	C136.633728,414.119629 174.758850,435.012573 212.908676,455.859650 
	C223.724792,461.770142 234.570145,467.632233 245.270844,473.746185 
	C248.991104,475.871765 252.211365,476.071777 256.016205,473.983337 
	C305.812988,446.650330 355.651276,419.392914 405.504913,392.163757 
	C409.330566,390.074249 410.727020,387.074127 410.712128,382.783600 
	C410.610748,353.623505 410.614319,324.462616 410.749817,295.302795 
	C410.760010,293.107819 408.940460,288.944366 413.253174,289.150940 
	C416.741913,289.318054 415.256439,293.143829 415.264404,295.311249 
	C415.371887,324.637970 415.188049,353.966431 415.441406,383.291351 
	C415.499786,390.052155 412.793762,394.094025 407.060455,397.193390 
	C379.953979,411.846710 352.954254,426.697540 325.601868,441.671173 
z"/>
<path fill="#000000" opacity="1.000000" stroke="none" 
	d="
M191.858047,51.781319 
	C209.136688,42.344463 226.164047,33.209854 242.986511,23.712313 
	C248.516159,20.590418 253.264069,20.542088 258.861023,23.625109 
	C308.605255,51.026096 358.445831,78.252304 408.281403,105.487213 
	C413.135254,108.139801 415.514832,111.828148 415.409424,117.550774 
	C415.173187,130.374741 415.399139,143.206696 415.270874,156.033737 
	C415.250580,158.062775 416.618317,161.522324 413.102386,161.651123 
	C409.431824,161.785583 410.746460,158.264557 410.725220,156.261780 
	C410.596252,144.101227 410.517578,131.936111 410.731201,119.777939 
	C410.818146,114.829277 408.918518,111.766556 404.592743,109.407997 
	C355.316437,82.540611 306.066650,55.623684 256.930450,28.501394 
	C252.039917,25.801901 248.338730,26.759958 243.970703,29.161369 
	C202.671204,51.866592 161.309891,74.459351 119.965309,97.082558 
	C112.222054,101.319580 104.552940,105.702408 96.695091,109.715393 
	C92.735992,111.737305 91.250671,114.608490 91.293991,118.901855 
	C91.416702,131.062515 91.332954,143.225250 91.327232,155.387177 
	C91.326683,156.553223 91.323074,157.719894 91.285393,158.885147 
	C91.232689,160.514832 90.864334,161.963165 88.794495,161.837082 
	C87.026459,161.729355 86.742165,160.375366 86.724869,158.972778 
	C86.677635,155.141556 86.667397,151.309753 86.664955,147.478149 
	C86.658676,137.648651 86.873779,127.813087 86.588898,117.991882 
	C86.411545,111.877701 88.978981,108.046684 94.220940,105.198280 
	C122.904533,89.612083 151.510010,73.882088 180.141281,58.199638 
	C183.939468,56.119240 187.731903,54.028309 191.858047,51.781319 
z"/>
<path fill="#000000" opacity="1.000000" stroke="none" 
	d="
M109.709061,210.780716 
	C109.654945,193.984024 117.046700,182.634674 131.067841,179.491531 
	C147.527420,175.801743 161.700989,181.386139 167.507324,196.681259 
	C173.341415,212.049484 167.411652,228.825531 153.331772,235.463104 
	C137.740524,242.813156 112.917282,237.657425 109.709061,210.780716 
M137.014847,191.384048 
	C130.105225,192.621704 125.579575,196.659897 123.876015,203.396469 
	C122.127190,210.312042 123.432106,216.727325 129.100555,221.477371 
	C134.403412,225.921051 140.527756,226.592407 146.806946,223.657150 
	C153.216446,220.660995 155.890976,215.253647 155.956375,208.368607 
	C156.058151,197.656067 149.339798,191.339432 137.014847,191.384048 
z"/>
<path fill="#000000" opacity="1.000000" stroke="none" 
	d="
M58.665512,227.961594 
	C58.666088,213.142639 58.782776,198.818024 58.594696,184.497421 
	C58.541145,180.419708 59.833271,178.700745 64.001678,178.936447 
	C70.475182,179.302521 76.977158,178.547333 83.452141,179.468338 
	C96.007790,181.254257 102.504173,193.627655 96.361160,204.785782 
	C94.801819,207.618149 95.143730,209.241257 96.726677,211.802689 
	C103.403702,222.607117 95.675720,236.818924 82.953629,237.298737 
	C76.966080,237.524551 70.940651,237.037872 64.975113,237.467407 
	C59.809570,237.839325 57.911987,235.918427 58.651085,230.953094 
	C58.772327,230.138519 58.666706,229.290192 58.665512,227.961594 
M71.467567,222.904221 
	C74.316017,225.218384 81.285950,225.620468 83.768837,223.613861 
	C86.321243,221.551071 86.402893,217.483734 83.659668,216.013565 
	C80.302216,214.214264 76.437675,214.290817 73.036438,215.456985 
	C70.019371,216.491425 71.675751,219.770554 71.467567,222.904221 
M85.415741,196.629440 
	C83.467995,192.490143 76.814293,190.222946 72.907051,192.331268 
	C70.812187,193.461639 71.351082,195.441177 71.338600,197.177094 
	C71.327293,198.751389 70.898232,200.531311 72.824066,201.545425 
	C76.723175,203.598679 83.418167,201.392273 85.415741,196.629440 
z"/>
<path fill="#000000" opacity="1.000000" stroke="none" 
	d="
M182.123413,218.955292 
	C182.272781,207.193207 182.569565,195.889877 182.502045,184.588699 
	C182.477890,180.544968 183.763672,178.792618 187.913559,178.994080 
	C194.216232,179.300064 200.536407,178.741653 206.844345,179.520721 
	C214.861206,180.510895 220.137421,184.278442 221.930176,191.176483 
	C223.898499,198.750092 223.127762,206.103333 216.477066,211.008759 
	C212.561417,213.896820 212.921432,215.963669 215.074036,219.454346 
	C218.439545,224.911850 221.377045,230.633331 224.698074,236.606720 
	C220.091141,237.925507 216.139954,237.327255 212.241333,237.202805 
	C210.287598,237.140411 209.668152,235.274292 208.908875,233.830139 
	C206.355713,228.974075 203.878662,224.078064 201.337814,219.215439 
	C200.483170,217.579849 199.571411,215.779144 197.283142,216.233673 
	C194.770828,216.732727 195.202362,218.932388 195.163940,220.674286 
	C195.075958,224.663559 195.014618,228.660080 195.159470,232.645767 
	C195.280792,235.984222 194.074081,237.378464 190.554718,237.438812 
	C182.551285,237.576096 182.599136,237.731888 182.545334,229.876297 
	C182.521439,226.388367 182.273361,222.901993 182.123413,218.955292 
M209.031357,195.404968 
	C206.737946,190.992111 202.593323,192.169891 198.894943,192.092148 
	C196.832169,192.048767 195.207413,192.853210 195.262024,195.204224 
	C195.324951,197.914551 193.851929,201.517670 196.706436,203.009827 
	C199.544128,204.493179 203.249252,204.364624 206.312531,202.755814 
	C208.849579,201.423355 210.157028,199.138702 209.031357,195.404968 
z"/>
<path fill="#000000" opacity="1.000000" stroke="none" 
	d="
M298.778503,200.225952 
	C301.892212,202.979736 305.361023,201.832520 308.571716,201.846283 
	C312.150696,201.861664 313.528259,202.956299 313.516724,206.766525 
	C313.492096,214.896179 313.707672,214.794006 305.546753,215.026443 
	C302.703918,215.107407 298.849762,213.680923 298.395752,218.829544 
	C298.032013,222.954086 299.107452,225.286285 303.769196,224.841232 
	C306.081177,224.620483 308.454163,225.010925 310.760132,224.760941 
	C315.560242,224.240555 317.350769,226.222717 317.169830,231.008423 
	C316.940247,237.081726 316.908203,237.356293 310.644379,237.369217 
	C303.978424,237.382980 297.309692,237.255753 290.647522,237.414093 
	C287.233490,237.495239 285.837555,236.189087 285.852509,232.764313 
	C285.923859,216.433060 285.916107,200.101151 285.850281,183.769836 
	C285.837860,180.683258 286.992157,179.059952 290.186310,179.068985 
	C297.351868,179.089249 304.517548,179.080673 311.683167,179.070038 
	C317.077057,179.062042 315.836853,183.107147 316.068542,186.237946 
	C316.318573,189.616501 315.725098,192.313309 311.388702,192.071518 
	C309.561127,191.969604 307.723450,192.052231 305.890411,192.044403 
	C298.101868,192.011139 298.093018,192.019745 298.778503,200.225952 
z"/>
<path fill="#000000" opacity="1.000000" stroke="none" 
	d="
M414.751343,190.032745 
	C414.979980,178.709335 412.669159,179.013062 425.124695,179.053894 
	C430.117981,179.070251 435.112000,179.123734 440.104462,179.062637 
	C445.665070,178.994583 444.128296,183.081238 444.325928,186.140656 
	C444.532074,189.331711 444.493347,192.332352 439.911835,192.036469 
	C437.590668,191.886566 435.233215,192.181747 432.927032,191.941238 
	C428.019501,191.429413 426.936432,193.934402 427.278290,198.215576 
	C427.475708,200.687607 428.335480,201.924988 430.851654,201.903702 
	C432.848511,201.886795 434.855164,202.070297 436.841095,201.931076 
	C440.783051,201.654678 442.537201,203.016357 442.417145,207.319458 
	C442.210785,214.714310 442.012329,215.131393 434.439056,214.750015 
	C427.999115,214.425720 427.337524,215.090378 427.276825,220.446045 
	C427.239929,223.701492 428.476990,224.981628 431.669342,224.856522 
	C434.826233,224.732788 437.995239,224.940994 441.154663,224.851974 
	C444.056610,224.770172 445.254517,225.906982 445.393494,228.935364 
	C445.775909,237.267593 445.817444,237.355347 437.612396,237.369171 
	C431.620331,237.379257 425.623596,237.224167 419.637817,237.417252 
	C415.961182,237.535858 414.672852,236.138184 414.708984,232.471298 
	C414.846771,218.491119 414.756470,204.508682 414.751343,190.032745 
z"/>
<path fill="#000000" opacity="1.000000" stroke="none" 
	d="
M245.332993,207.174225 
	C245.825302,221.596970 253.424881,226.017487 272.181824,223.207581 
	C272.431122,223.413284 272.832947,223.580139 272.902283,223.836823 
	C276.118713,235.741196 274.611572,237.471222 261.113434,237.411758 
	C244.384018,237.338058 233.173279,227.175446 232.160797,209.607437 
	C231.376511,195.998932 238.120316,182.797195 255.187195,179.153519 
	C257.274414,178.707901 259.480347,178.694397 261.631470,178.692505 
	C273.506195,178.682022 275.318024,181.303345 271.378021,192.652100 
	C252.695007,190.943146 247.304062,193.863708 245.332993,207.174225 
z"/>
<path fill="#000000" opacity="1.000000" stroke="none" 
	d="
M403.000000,231.984055 
	C403.299469,235.979263 401.910828,237.550873 398.132965,237.436005 
	C390.993561,237.218948 383.840973,237.278732 376.697601,237.416168 
	C373.411255,237.479416 371.813080,236.453674 371.832855,232.897858 
	C371.924347,216.445908 371.861145,199.993149 371.868011,183.540680 
	C371.870575,177.347092 376.618774,179.436035 379.858917,179.079697 
	C383.410492,178.689133 384.758942,180.145096 384.660156,183.990448 
	C384.353088,195.947678 384.561798,207.917206 384.391693,219.879425 
	C384.340851,223.456696 385.497162,225.172455 389.261963,224.856308 
	C391.572449,224.662292 393.912231,224.806366 396.238800,224.815994 
	C402.748718,224.842926 402.848053,224.945053 403.000000,231.984055 
z"/>
<path fill="#000000" opacity="1.000000" stroke="none" 
	d="
M342.290771,208.995468 
	C342.294769,213.319427 342.376495,217.146729 342.275909,220.969208 
	C342.202332,223.764893 343.459412,224.859528 346.174774,224.795975 
	C349.664917,224.714264 353.159149,224.827179 356.651337,224.806732 
	C359.116455,224.792297 360.104187,225.925873 360.330109,228.418655 
	C361.083801,236.735458 360.629242,237.357269 352.550751,237.371246 
	C346.563416,237.381607 340.571075,237.224899 334.590637,237.427841 
	C330.972656,237.550613 329.582428,236.306290 329.613556,232.579880 
	C329.749664,216.282196 329.778748,199.981491 329.597015,183.684677 
	C329.546936,179.194901 332.052734,178.839783 335.333038,179.058075 
	C338.453949,179.265778 342.403656,178.082855 342.324036,183.550095 
	C342.202972,191.864044 342.291046,200.181030 342.290771,208.995468 
z"/>
<path fill="#000000" opacity="1.000000" stroke="none" 
	d="
M249.063766,118.921989 
	C251.134766,118.210411 252.584839,116.624222 252.943558,114.667450 
	C254.037399,108.700768 257.969360,104.256439 260.853912,99.271500 
	C262.118835,97.085480 263.383820,94.286865 266.658203,94.473022 
	C269.966644,94.661095 271.982697,96.636330 273.252502,99.653564 
	C274.801819,103.334839 278.557861,104.023613 281.759308,105.116013 
	C284.984070,106.216377 285.706360,107.764137 283.979218,110.581970 
	C283.111725,111.997330 282.334778,113.497002 281.282532,114.763924 
	C279.473755,116.941696 277.467560,119.538704 274.438477,119.182098 
	C271.071686,118.785744 271.823639,115.058350 270.763519,112.814613 
	C269.944702,111.081558 269.824554,109.007721 268.458557,107.532730 
	C265.389618,108.162132 264.149445,110.533791 262.607025,112.351768 
	C256.368408,119.704964 250.297653,127.200378 244.144058,134.626022 
	C242.200577,136.971252 241.011169,139.688690 239.966522,142.507980 
	C239.179840,144.631119 238.033707,146.388290 235.358841,146.341980 
	C233.629074,146.312027 231.932434,146.147629 231.000427,144.499756 
	C229.651596,142.114838 231.249512,140.355957 232.607239,138.699936 
	C237.345825,132.920258 242.154205,127.197807 247.240814,120.937531 
	C248.051651,119.921638 248.557709,119.421814 249.063766,118.921989 
z"/>
<path fill="#000000" opacity="1.000000" stroke="none" 
	d="
M249.145050,118.594055 
	C248.557709,119.421814 248.051651,119.921638 247.364258,120.604355 
	C243.328476,119.270844 242.028442,115.283836 239.326630,112.649834 
	C237.588531,110.955360 236.538498,108.456520 233.529648,107.861298 
	C231.523193,110.581871 231.174820,113.937874 230.203308,117.011505 
	C229.216995,120.131836 227.429703,120.500504 224.943390,118.980270 
	C220.617783,116.335396 218.076981,112.434891 216.976990,107.600388 
	C218.818100,105.561676 221.331360,105.444626 223.339523,104.327911 
	C225.780060,102.970764 227.952377,101.809349 229.308151,98.817863 
	C231.636841,93.679718 236.890503,93.292740 239.837418,97.984962 
	C243.072418,103.135872 247.396103,107.714119 248.862488,113.931961 
	C249.212982,115.418060 249.723648,116.761833 249.145050,118.594055 
z"/>
<path fill="#000000" opacity="1.000000" stroke="none" 
	d="
M199.602997,259.822388 
	C200.948013,264.741211 199.587311,268.511780 195.834412,271.128418 
	C192.236938,273.636627 188.271545,273.515350 184.579941,271.178467 
	C180.658539,268.696106 180.184158,264.772064 180.742432,260.604858 
	C181.375076,255.882538 184.650467,253.731567 188.906479,253.173538 
	C193.882065,252.521149 197.673187,254.442139 199.602997,259.822388 
M192.490982,258.969452 
	C189.790649,257.597961 187.781357,258.466370 186.233582,260.882965 
	C185.104340,262.646057 185.299332,264.300262 186.646576,265.834015 
	C188.423019,267.856354 190.568756,268.360199 192.710403,266.641327 
	C195.407425,264.476685 195.289047,261.934937 192.490982,258.969452 
z"/>
<path fill="#000000" opacity="1.000000" stroke="none" 
	d="
M159.570526,254.298782 
	C167.454102,251.822861 173.144150,254.562134 174.226028,261.000824 
	C175.067444,266.008362 172.485916,270.732239 168.071091,272.263458 
	C163.305908,273.916260 158.223419,272.166870 155.918213,268.080475 
	C153.300217,263.439575 154.526093,258.397400 159.570526,254.298782 
M163.747864,258.365051 
	C160.536484,259.189362 159.640701,261.440399 160.293610,264.386414 
	C160.839142,266.847992 162.650360,267.854828 165.090027,267.602142 
	C167.402206,267.362640 168.589096,265.833344 168.799057,263.663544 
	C169.098083,260.573059 167.811539,258.587189 163.747864,258.365051 
z"/>
<path fill="#000000" opacity="1.000000" stroke="none" 
	d="
M67.631866,262.961060 
	C68.328308,256.369873 72.037064,252.813675 77.574844,252.999725 
	C82.736267,253.173141 87.089447,257.514221 87.244453,262.642456 
	C87.402298,267.864868 83.417007,272.296265 78.161263,272.742432 
	C72.228111,273.246155 68.565865,269.993103 67.631866,262.961060 
M72.857330,264.687561 
	C76.333275,268.458679 80.044868,268.475586 81.387535,264.656647 
	C82.015694,262.869965 81.939819,261.035583 80.473419,259.530060 
	C79.148506,258.169769 77.473877,257.936035 75.857437,258.553864 
	C73.438431,259.478455 72.169266,261.308563 72.857330,264.687561 
z"/>
<path fill="#000000" opacity="1.000000" stroke="none" 
	d="
M355.048584,267.280182 
	C354.501373,266.264465 354.163544,265.488586 353.742432,264.521362 
	C351.650635,266.958221 352.437408,268.724030 352.047333,270.266876 
	C351.704590,271.622406 350.863953,272.201263 349.541565,272.200928 
	C348.419861,272.200653 347.433167,271.682678 347.348633,270.583038 
	C346.910095,264.878387 346.284851,259.148438 347.561096,253.236176 
	C352.123840,254.288727 352.955353,258.778534 356.238831,260.366241 
	C356.471741,260.109497 356.771606,259.920227 356.859955,259.659332 
	C357.576080,257.544464 355.973450,253.737610 359.705261,253.810516 
	C364.024536,253.894867 362.160461,257.817749 362.151123,260.056763 
	C362.134277,264.096588 363.070587,268.272614 361.410309,272.459564 
	C358.118286,272.033264 357.120697,269.225189 355.048584,267.280182 
z"/>
<path fill="#000000" opacity="1.000000" stroke="none" 
	d="
M132.962753,265.874939 
	C132.960327,264.232849 132.734970,263.015137 132.994080,261.911133 
	C133.707764,258.870209 130.639633,253.969528 136.979614,253.594849 
	C144.097473,253.174179 148.189651,256.091949 148.781326,262.084686 
	C149.271591,267.050537 145.953705,271.543884 141.242706,272.294098 
	C134.550262,273.359863 133.200195,272.391083 132.962753,265.874939 
M140.804916,267.202454 
	C142.868088,266.013153 144.088638,264.290314 143.382706,261.891235 
	C142.803375,259.922485 141.629257,258.336945 138.708908,258.869141 
	C138.707474,261.806427 136.218643,264.980499 140.804916,267.202454 
z"/>
<path fill="#000000" opacity="1.000000" stroke="none" 
	d="
M219.436325,262.736633 
	C215.747406,266.250366 220.695404,268.676880 220.088791,271.682312 
	C215.134811,274.116699 214.604568,269.147766 212.324997,266.741760 
	C211.992935,267.393738 211.722076,267.746765 211.627579,268.141968 
	C211.212082,269.879486 212.216858,272.671600 208.951279,272.378113 
	C205.948959,272.108276 206.824188,269.492065 206.703674,267.674957 
	C206.550217,265.360931 206.472305,263.011047 206.703903,260.711029 
	C206.936264,258.403442 205.385269,255.083939 208.366745,254.073288 
	C211.409546,253.041855 215.061920,252.765472 217.965073,254.790207 
	C220.617401,256.640015 220.740631,259.503448 219.436325,262.736633 
z"/>
<path fill="#000000" opacity="1.000000" stroke="none" 
	d="
M415.830139,268.584473 
	C413.528046,265.730377 413.509216,267.788696 413.370544,269.374451 
	C413.224518,271.044312 412.794647,272.364044 410.716461,272.090942 
	C408.940857,271.857605 408.791931,270.470215 408.758606,269.120911 
	C408.688812,266.295135 408.682037,263.467285 408.687103,260.640320 
	C408.699005,253.966965 412.613586,251.350952 418.795746,254.074173 
	C421.772675,255.385498 423.479095,258.468933 421.808594,261.007446 
	C419.242554,264.906769 420.380371,268.019104 422.364716,271.419189 
	C418.729462,273.556641 417.350281,271.247803 415.830139,268.584473 
z"/>
<path fill="#000000" opacity="1.000000" stroke="none" 
	d="
M293.509888,272.420837 
	C291.455994,272.409760 289.764282,272.639862 287.951477,271.477356 
	C287.951477,265.902557 287.951477,260.137848 287.951477,254.407837 
	C296.509521,252.188538 301.963318,254.869095 303.107513,261.745636 
	C303.983459,267.010040 300.023315,271.602539 293.509888,272.420837 
M295.502197,266.859650 
	C297.769684,265.107391 298.383972,262.900085 297.053680,260.352753 
	C296.429291,259.157135 295.343628,258.233917 293.839661,258.576569 
	C292.103699,258.972046 292.037628,260.606232 292.363373,261.760590 
	C292.902039,263.669312 290.365173,267.153961 295.502197,266.859650 
z"/>
<path fill="#000000" opacity="1.000000" stroke="none" 
	d="
M94.460037,254.179382 
	C97.151436,253.261444 98.271118,254.186157 98.278267,256.609100 
	C98.286133,259.273254 98.304405,261.938141 98.378738,264.601013 
	C98.419838,266.073120 99.056282,267.339783 100.661339,267.348175 
	C102.371483,267.357147 102.754868,265.912170 102.810333,264.518707 
	C102.916267,261.857635 102.890259,259.191437 102.985176,256.529755 
	C103.034569,255.144867 103.312378,253.809235 105.079697,253.651016 
	C107.056770,253.474045 107.767113,254.731979 107.871056,256.391327 
	C108.089577,259.879486 108.273354,263.378021 107.608208,266.846283 
	C106.803635,271.041565 104.101189,272.654022 100.030052,272.340759 
	C96.042557,272.033966 93.946259,269.667938 93.791725,265.868530 
	C93.637169,262.068512 93.223396,258.223480 94.460037,254.179382 
z"/>
<path fill="#000000" opacity="1.000000" stroke="none" 
	d="
M260.419983,127.609322 
	C263.702484,131.599075 266.788666,135.292099 269.748840,139.083496 
	C270.932495,140.599503 272.562927,142.198685 271.248047,144.398285 
	C270.310150,145.967224 268.677643,146.279663 266.927490,146.359253 
	C264.252075,146.480927 262.929108,144.909470 262.298798,142.686462 
	C261.072174,138.360306 258.253906,135.162582 255.289108,131.988205 
	C253.703323,130.290329 251.001495,128.639816 253.740692,125.810989 
	C256.709839,122.744675 258.344055,125.515541 260.419983,127.609322 
z"/>
<path fill="#000000" opacity="1.000000" stroke="none" 
	d="
M339.464600,264.236389 
	C338.492432,265.054382 337.666504,265.586792 336.705261,266.206451 
	C337.000580,267.630035 338.541718,267.219788 339.335144,267.875946 
	C340.579742,268.905243 340.884033,270.509583 340.026642,271.415436 
	C338.226227,273.317627 335.640076,272.177063 333.390961,272.329407 
	C331.739105,272.441254 330.235779,271.798859 330.158508,269.965515 
	C329.962372,265.313416 329.926331,260.651703 329.953003,255.994537 
	C329.963531,254.156387 331.283722,253.204483 332.970306,253.471283 
	C335.306030,253.840805 338.580200,252.370605 339.794800,255.020462 
	C341.459381,258.652008 336.998749,257.607727 335.491180,259.373657 
	C336.720490,261.022522 341.033508,260.182983 339.464600,264.236389 
z"/>
<path fill="#000000" opacity="1.000000" stroke="none" 
	d="
M269.312103,261.389130 
	C270.622101,258.522247 271.062378,255.635880 273.690613,252.904083 
	C277.139709,259.098816 279.205872,265.323517 282.015778,272.611603 
	C276.011047,271.320404 271.077332,269.317169 266.161102,273.349213 
	C265.441071,267.993774 268.288086,265.151306 269.312103,261.389130 
z"/>
<path fill="#000000" opacity="1.000000" stroke="none" 
	d="
M392.185699,256.584656 
	C392.231934,259.163544 392.215881,261.321075 392.281158,263.476166 
	C392.330780,265.112762 392.143066,267.229614 394.398590,267.319641 
	C396.687714,267.410980 396.658661,265.330170 396.705994,263.666779 
	C396.767365,261.511627 396.719574,259.353516 396.769012,257.197815 
	C396.807892,255.499924 396.831146,253.684418 399.260834,253.754272 
	C401.479706,253.818054 401.284576,255.569305 401.307251,257.025848 
	C401.353790,260.010925 401.416931,263.002319 401.279022,265.982117 
	C401.085815,270.155121 398.747620,272.331757 394.597778,272.427124 
	C390.418793,272.523163 387.967346,270.390320 387.736420,266.238403 
	C387.516693,262.287537 387.689087,258.314880 387.689087,254.178619 
	C390.003357,253.336639 391.683624,253.328369 392.185699,256.584656 
z"/>
<path fill="#000000" opacity="1.000000" stroke="none" 
	d="
M316.692413,259.233398 
	C318.594482,256.675079 318.596191,252.044510 324.394745,254.171371 
	C322.531586,260.609558 319.895264,266.622040 316.466614,273.621704 
	C312.635956,266.897583 310.148254,260.856506 308.399109,254.463303 
	C314.441254,251.446930 313.671326,258.114746 316.692413,259.233398 
z"/>
<path fill="#000000" opacity="1.000000" stroke="none" 
	d="
M435.298462,258.409851 
	C434.071960,258.883362 433.574188,259.600220 434.633759,260.206757 
	C435.943329,260.956390 438.095398,260.376648 438.169525,262.894501 
	C438.247101,265.529144 435.436462,264.833832 434.468964,266.192108 
	C434.989563,267.396240 436.141388,267.252686 437.018219,267.548218 
	C438.490234,268.044312 439.276184,268.900330 439.013275,270.502014 
	C438.770386,271.981689 437.607391,272.112091 436.418945,272.317627 
	C430.171814,273.397888 428.725433,272.204071 428.693268,265.853180 
	C428.683167,263.855499 428.671265,261.857666 428.682220,259.860016 
	C428.716919,253.531158 428.874664,253.367203 435.093140,253.609573 
	C436.660767,253.670685 438.749725,253.083374 438.925385,255.591324 
	C439.081451,257.819794 437.427704,258.292084 435.298462,258.409851 
z"/>
<path fill="#000000" opacity="1.000000" stroke="none" 
	d="
M307.343292,135.068329 
	C306.440033,132.071503 306.408051,129.479507 307.538422,126.935791 
	C308.343689,125.123703 309.653137,123.919945 311.680756,123.882339 
	C313.726105,123.844391 315.176544,125.081451 315.926971,126.821625 
	C316.911407,129.104416 317.513092,131.482040 316.653076,134.056824 
	C315.934753,136.207397 315.163300,138.156250 312.583954,138.482681 
	C310.124146,138.794022 308.424927,137.753937 307.343292,135.068329 
z"/>
<path fill="#000000" opacity="1.000000" stroke="none" 
	d="
M115.858109,258.277039 
	C113.925545,257.590668 113.537567,256.374359 113.896324,254.945175 
	C114.277779,253.425552 115.659447,253.653229 116.782097,253.647263 
	C119.445847,253.633133 122.118431,253.580353 124.771446,253.768600 
	C127.010742,253.927490 128.055374,256.289856 126.507454,257.071075 
	C121.218872,259.740204 123.451630,264.558044 122.479942,268.428528 
	C122.116753,269.875183 123.116417,272.123352 120.454956,272.206421 
	C117.735184,272.291321 118.055397,270.132050 117.755409,268.335114 
	C117.204086,265.032654 119.231781,261.327148 115.858109,258.277039 
z"/>
<path fill="#000000" opacity="1.000000" stroke="none" 
	d="
M209.010590,128.593170 
	C209.476944,135.711060 207.035309,138.633530 201.551575,138.366577 
	C199.121872,138.248306 197.844040,137.300888 197.817108,134.826736 
	C197.804520,133.670120 197.601425,132.488983 197.771790,131.362381 
	C198.155319,128.826218 196.180511,125.138161 200.104507,124.192154 
	C203.696396,123.326202 206.965652,124.631126 209.010590,128.593170 
M201.868027,131.123886 
	C201.991882,132.250183 200.979156,133.938080 203.118484,134.099564 
	C204.142563,134.176849 204.896820,133.377563 205.291824,132.440475 
	C205.870926,131.066589 205.512863,129.853928 204.239502,129.106171 
	C202.741089,128.226242 202.254608,129.284698 201.868027,131.123886 
z"/>
<path fill="#000000" opacity="1.000000" stroke="none" 
	d="
M377.277039,267.852142 
	C377.146515,270.136292 377.293396,272.366638 374.547455,272.018433 
	C372.190918,271.719696 372.792450,269.549469 372.700958,268.001923 
	C372.583313,266.012665 372.654083,264.011963 372.651337,262.016205 
	C372.648926,260.282318 372.564148,258.623932 370.323914,258.258057 
	C368.837067,258.015198 367.803986,257.228424 367.994568,255.591324 
	C368.241638,253.468735 370.006592,253.704163 371.448273,253.656647 
	C373.940613,253.574524 376.439972,253.526596 378.930603,253.619171 
	C381.610352,253.718811 382.360596,256.479004 380.830994,257.163666 
	C375.593109,259.508209 377.814087,263.806305 377.277039,267.852142 
z"/>
<path fill="#000000" opacity="1.000000" stroke="none" 
	d="
M159.049377,136.624878 
	C158.870026,133.354141 158.682068,130.522034 158.819199,127.705765 
	C158.978531,124.433716 161.674728,122.885666 164.756912,124.010185 
	C166.097626,124.499344 166.970459,126.179008 166.282959,126.563286 
	C162.982544,128.408020 168.252640,132.087799 164.491394,133.879639 
	C163.846848,134.186707 167.629684,134.714417 166.160553,137.615219 
	C164.183975,138.733078 161.697723,139.187759 159.049377,136.624878 
z"/>
<path fill="#000000" opacity="1.000000" stroke="none" 
	d="
M175.788208,138.335632 
	C173.580719,138.266006 171.266968,138.612061 171.121185,136.084534 
	C170.974411,133.539307 173.614197,134.748367 175.447189,133.990768 
	C172.065430,131.465439 169.029785,128.904709 172.803329,125.051117 
	C174.301376,123.521286 176.576675,123.157219 178.212616,124.831619 
	C180.333389,127.002235 178.201019,127.876373 176.471756,128.630142 
	C181.395630,134.124649 181.339325,135.609177 175.788208,138.335632 
z"/>
<path fill="#000000" opacity="1.000000" stroke="none" 
	d="
M297.204437,129.806091 
	C296.871948,127.697327 292.604523,128.513596 294.391174,125.437057 
	C295.294098,123.882217 297.115875,123.588860 298.832458,124.105148 
	C301.423431,124.884407 303.154907,126.940598 302.042297,129.334747 
	C300.649200,132.332428 301.237976,134.803467 302.656555,137.550461 
	C299.517242,139.186218 296.702057,138.629166 293.733337,137.924469 
	C293.811096,134.647461 296.455292,132.810150 297.204437,129.806091 
z"/>
<path fill="#000000" opacity="1.000000" stroke="none" 
	d="
M340.226318,124.819885 
	C343.531799,128.315842 342.294373,132.253235 341.949280,135.867065 
	C341.716949,138.299820 336.967255,139.476227 334.860168,138.001266 
	C333.877991,137.313751 333.509369,136.100433 334.317474,135.506165 
	C337.992218,132.803802 336.741272,130.155838 334.553986,127.375244 
	C334.011078,126.685059 333.775482,125.827843 334.445068,125.133362 
	C336.070099,123.447899 337.944489,123.604111 340.226318,124.819885 
z"/>
<path fill="#000000" opacity="1.000000" stroke="none" 
	d="
M324.338654,128.587128 
	C322.657196,128.168793 320.763458,128.301193 321.173676,126.035004 
	C321.455017,124.480812 323.018677,124.222893 324.299011,124.024475 
	C327.677551,123.500893 330.375671,126.225052 329.200745,129.520172 
	C328.202179,132.320755 327.441925,134.647171 330.307312,136.889511 
	C327.095886,139.357910 324.088379,138.092575 321.055634,138.175766 
	C320.874847,134.136780 324.823395,132.251617 324.338654,128.587128 
z"/>
<path fill="#000000" opacity="1.000000" stroke="none" 
	d="
M189.705444,123.897095 
	C193.470154,124.318886 195.314362,125.274330 191.686417,128.240051 
	C189.328079,130.167908 190.717041,132.863419 190.305405,135.189499 
	C190.082214,136.450684 190.295303,138.080017 188.321976,137.903168 
	C186.792511,137.766083 186.810257,136.392578 186.720459,135.255722 
	C186.484253,132.264511 185.756454,129.731125 184.287354,126.827133 
	C182.190994,122.683235 187.268265,124.551125 189.705444,123.897095 
z"/>
<path fill="#000000" opacity="1.000000" stroke="none" 
	d="
M256.853180,397.162598 
	C253.068054,397.326416 250.955780,395.820374 251.223099,392.316650 
	C251.443710,389.425110 253.451920,388.040588 256.343597,388.197418 
	C258.157074,388.295776 259.487549,389.305634 259.946472,391.054596 
	C260.643188,393.709473 260.072968,395.937317 256.853180,397.162598 
z"/>
</svg>