<svg version="1.1" id="Layer_1" xmlns="http://www.w3.org/2000/svg" xmlns:xlink="http://www.w3.org/1999/xlink" x="0px" y="0px"
	 width="100%" viewBox="0 0 752 560" enable-background="new 0 0 752 560" xml:space="preserve">
<path fill="#000000" opacity="1.000000" stroke="none" 
	d="
M377.980103,374.922424 
	C374.618317,374.228760 374.963501,371.806976 374.950836,369.706543 
	C374.900635,361.380249 374.821533,353.050995 374.998474,344.728058 
	C375.073090,341.219116 374.174591,339.362457 370.349304,338.557678 
	C358.824402,336.132965 350.142334,329.630402 344.294830,319.307465 
	C338.305359,308.733948 332.021667,298.326172 326.092194,287.719849 
	C319.422424,275.789337 318.903259,263.393982 325.622162,251.481339 
	C342.059082,222.338501 358.913879,193.431305 375.619049,164.439972 
	C376.104950,163.596680 376.798706,162.873138 377.335999,162.171539 
	C379.698853,162.231476 380.099243,164.144775 380.869507,165.474945 
	C397.220245,193.710449 413.683624,221.882858 429.755310,250.276871 
	C436.636078,262.433228 436.611816,275.194519 429.915680,287.518555 
	C424.036743,298.338593 417.685577,308.903656 411.471619,319.539673 
	C405.533234,329.704071 396.877899,336.362457 385.268066,338.597992 
	C381.353546,339.351685 380.697662,341.096680 380.834076,344.671326 
	C381.144928,352.820129 381.029724,360.988586 380.932861,369.147217 
	C380.907135,371.314484 381.584473,374.040466 377.980103,374.922424 
M427.408905,258.528381 
	C422.355713,246.697464 414.858154,236.218628 408.795013,224.944977 
	C407.663330,222.840698 406.753693,220.467941 404.158997,218.551300 
	C397.402161,230.232315 390.911102,241.628860 384.228851,252.912201 
	C381.854156,256.922028 380.872894,261.029755 380.911530,265.700745 
	C381.061737,283.852814 380.909576,302.007172 380.936462,320.160614 
	C380.942749,324.414124 379.839752,328.710541 381.233307,333.236450 
	C384.738892,332.353027 386.761871,329.970673 388.344421,327.222229 
	C401.384888,304.574310 414.375122,281.897491 427.408905,258.528381 
M374.903107,241.500000 
	C374.903107,220.612503 374.903107,199.725006 374.903107,178.359634 
	C373.984192,179.011627 373.633240,179.134720 373.491577,179.379120 
	C362.135132,198.971039 350.829773,218.592743 339.408508,238.146729 
	C338.022827,240.519119 338.968903,242.171326 340.079620,244.089645 
	C345.753540,253.888947 351.367554,263.722900 357.027649,273.530212 
	C362.728882,283.408813 368.459564,293.270447 374.903870,304.393494 
	C374.903870,282.753784 374.903870,262.626892 374.903107,241.500000 
M344.706207,287.845459 
	C352.223633,300.790222 359.723297,313.745331 367.272461,326.671570 
	C368.907745,329.471558 370.517487,332.420105 374.628174,332.741394 
	C375.205231,323.512268 375.537354,315.012848 370.060699,306.725616 
	C362.372345,295.091705 355.970032,282.609894 348.970642,270.517975 
	C344.419342,262.655334 339.784332,254.841202 334.820465,246.380859 
	C333.393127,248.719482 332.438446,250.433701 331.341644,252.051544 
	C328.454803,256.309692 328.220398,260.141724 331.314178,264.782562 
	C336.100128,271.961823 340.041962,279.703888 344.706207,287.845459 
M398.583191,217.078568 
	C399.726501,214.927597 401.702087,212.907837 400.165588,210.207855 
	C394.035797,199.436615 387.853577,188.695160 381.384308,177.407944 
	C381.384308,200.539505 381.384308,222.850906 381.384308,245.162308 
	C381.672241,245.208679 381.960144,245.255051 382.248077,245.301407 
	C387.562164,236.103989 392.876221,226.906570 398.583191,217.078568 
M343.204254,306.351624 
	C348.248413,314.813293 351.960510,324.359100 362.562134,329.719360 
	C350.421051,308.690765 338.804077,288.569885 327.187103,268.449005 
	C326.750183,274.679169 328.073456,280.278076 331.024994,285.419281 
	C334.922699,292.208710 338.891174,298.957550 343.204254,306.351624 
M402.882751,322.370667 
	C412.752289,305.021301 426.104797,289.357910 429.828461,269.033630 
	C429.440948,268.839142 429.053467,268.644653 428.665955,268.450165 
	C417.100891,288.531281 405.535828,308.612427 393.970764,328.693542 
	C395.979858,328.361450 397.276947,327.600891 398.412933,326.648224 
	C399.810486,325.476227 401.073639,324.143951 402.882751,322.370667 
z"/>
<path fill="#000000" opacity="1.000000" stroke="none" 
	d="
M426.097717,442.519226 
	C425.837860,435.303925 425.757874,428.511871 425.703400,421.719635 
	C425.689453,419.978790 425.930328,418.188873 428.091888,417.995697 
	C433.415009,417.519867 438.851562,417.126465 443.078796,421.303497 
	C446.990356,425.168671 447.351837,429.978943 446.262634,435.144073 
	C444.920410,441.509033 436.488770,446.714691 426.097717,442.519226 
M437.882507,438.438416 
	C441.189270,434.846924 442.079803,428.818237 439.781982,425.262268 
	C438.281555,422.940247 436.048950,421.951508 433.382080,422.436646 
	C430.450226,422.970001 431.476349,425.485931 431.369049,427.285675 
	C431.221649,429.757874 431.312592,432.245941 431.341919,434.726715 
	C431.403900,439.965729 431.812378,440.243835 437.882507,438.438416 
z"/>
<path fill="#000000" opacity="1.000000" stroke="none" 
	d="
M386.059326,431.824951 
	C384.660980,435.090881 383.603943,438.098236 382.071655,440.840027 
	C379.581604,445.295441 376.396088,445.336243 373.916107,440.979767 
	C370.510895,434.997925 368.368683,428.545502 367.379517,421.718170 
	C367.129059,419.989532 366.819885,418.273560 369.249908,417.930267 
	C371.328949,417.636597 372.380493,418.857056 372.732788,420.675598 
	C373.554932,424.919373 374.428040,429.141388 376.052307,433.169220 
	C376.476593,434.221375 376.662537,435.431641 378.246826,436.036499 
	C381.038940,432.028625 381.624207,427.254425 382.646851,422.648560 
	C383.147675,420.392853 383.123138,417.408508 386.462708,418.002502 
	C390.093994,418.648376 388.275238,421.748352 388.077972,423.713440 
	C387.815491,426.328247 386.850433,428.872559 386.059326,431.824951 
z"/>
<path fill="#000000" opacity="1.000000" stroke="none" 
	d="
M316.653320,426.078491 
	C317.531067,423.006805 314.521423,418.075714 319.620789,418.221741 
	C323.928345,418.345062 321.763580,422.912476 322.184326,425.544983 
	C322.495148,427.489807 322.248505,429.523926 322.248383,431.518250 
	C322.247925,438.646851 322.245483,438.661346 329.228485,439.709015 
	C330.589691,439.913239 331.988861,440.004852 331.985840,441.840240 
	C331.982941,443.612946 330.651031,443.922607 329.265228,444.092926 
	C328.936249,444.133362 328.601379,444.123169 328.270325,444.150146 
	C316.658661,445.096252 316.658508,445.096527 316.653412,433.545349 
	C316.652374,431.218628 316.653320,428.891876 316.653320,426.078491 
z"/>
<path fill="#000000" opacity="1.000000" stroke="none" 
	d="
M348.175934,418.215515 
	C350.827118,417.693268 352.209076,418.564880 352.220337,420.904114 
	C352.253082,427.708618 352.222656,434.513733 352.157410,441.318054 
	C352.143219,442.798859 351.390808,443.853699 349.767761,443.972015 
	C348.284424,444.080109 346.849091,443.606689 346.884216,441.980865 
	C347.054138,434.114655 345.412750,426.173859 348.175934,418.215515 
z"/>
<path fill="#000000" opacity="1.000000" stroke="none" 
	d="
M409.254639,421.341492 
	C409.278870,427.925995 409.278992,434.047211 409.272614,440.168396 
	C409.270569,442.120514 408.990021,443.962372 406.461548,443.944763 
	C403.921387,443.927063 403.700470,442.036133 403.696259,440.113770 
	C403.682831,433.992615 403.671234,427.871246 403.704803,421.750244 
	C403.713989,420.085846 403.720215,418.270172 406.005798,418.024048 
	C408.052429,417.803589 409.065430,418.896973 409.254639,421.341492 
z"/>
</svg>